<?xml version="1.0" encoding="UTF-8"?>
<svg width="24px" height="20px" viewBox="0 0 24 20" version="1.1" xmlns="http://www.w3.org/2000/svg" xmlns:xlink="http://www.w3.org/1999/xlink">
    <!-- Generator: Sketch 46.2 (44496) - http://www.bohemiancoding.com/sketch -->
    <title>fullscreen</title>
    <desc>Created with Sketch.</desc>
    <defs></defs>
    <g id="Page-1" stroke="none" stroke-width="1" fill="none" fill-rule="evenodd">
        <g id="fullscreen" fill-rule="nonzero" fill="#FFFFFF">
            <g id="Group">
                <path d="M19.705,16.453 L4.295,16.453 C4.019,16.453 3.795,16.229 3.795,15.953 L3.795,4.069 C3.795,3.793 4.019,3.569 4.295,3.569 L19.704,3.569 C19.98,3.569 20.204,3.793 20.204,4.069 L20.204,15.953 C20.205,16.229 19.981,16.453 19.705,16.453 Z M4.795,15.453 L19.204,15.453 L19.204,4.569 L4.795,4.569 L4.795,15.453 Z" id="Shape"></path>
                <path d="M5.767,19.828 L0.562,19.828 C0.286,19.828 0.062,19.604 0.062,19.328 L0.062,14.196 C0.062,13.92 0.286,13.696 0.562,13.696 C0.838,13.696 1.062,13.92 1.062,14.196 L1.062,18.828 L5.767,18.828 C6.043,18.828 6.267,19.052 6.267,19.328 C6.267,19.604 6.043,19.828 5.767,19.828 Z" id="Shape"></path>
                <path d="M23.438,19.828 L18.233,19.828 C17.957,19.828 17.733,19.604 17.733,19.328 C17.733,19.052 17.957,18.828 18.233,18.828 L22.938,18.828 L22.938,14.196 C22.938,13.92 23.162,13.696 23.438,13.696 C23.714,13.696 23.938,13.92 23.938,14.196 L23.938,19.328 C23.938,19.604 23.714,19.828 23.438,19.828 Z" id="Shape"></path>
                <path d="M23.438,6.303 C23.162,6.303 22.938,6.079 22.938,5.803 L22.938,1.172 L18.233,1.172 C17.957,1.172 17.733,0.948 17.733,0.672 C17.733,0.396 17.957,0.172 18.233,0.172 L23.438,0.172 C23.714,0.172 23.938,0.396 23.938,0.672 L23.938,5.803 C23.938,6.079 23.714,6.303 23.438,6.303 Z" id="Shape"></path>
                <path d="M0.562,6.303 C0.286,6.303 0.062,6.079 0.062,5.803 L0.062,0.672 C0.062,0.396 0.286,0.172 0.562,0.172 L5.767,0.172 C6.043,0.172 6.267,0.396 6.267,0.672 C6.267,0.948 6.043,1.172 5.767,1.172 L1.062,1.172 L1.062,5.803 C1.062,6.079 0.838,6.303 0.562,6.303 Z" id="Shape"></path>
            </g>
        </g>
    </g>
</svg>